<?xml version="1.0" encoding="UTF-8"?>
<svg id="Layer_2" data-name="Layer 2" xmlns="http://www.w3.org/2000/svg" viewBox="0 0 128.2 128.16">
  <defs>
    <style>
      .cls-1 {
        fill: #fff;
      }
    </style>
  </defs>
  <g id="Layer_1-2" data-name="Layer 1">
    <g>
      <path class="cls-1" d="M82.94,33.97l-10.45,9.81c-2.36,2.21-2.48,5.93-.26,8.29l7.09,7.56c1.16,1.23,2.72,1.85,4.28,1.85,1.44,0,2.89-.53,4.02-1.59l10.44-9.8c1.15-1.08,1.8-2.53,1.85-4.1.05-1.56-.51-3.05-1.58-4.2l-7.1-7.56c-2.22-2.36-5.94-2.47-8.29-.26ZM95.91,45.87c-.01.5-.22.96-.58,1.3l-10.45,9.81c-.75.7-1.94.66-2.64-.09l-7.1-7.56c-.7-.75-.66-1.93.09-2.64l10.44-9.8c.75-.71,1.94-.67,2.64.08l7.1,7.56c.34.37.52.84.5,1.34Z"/>
      <path class="cls-1" d="M44.9,72.56c-2.21-2.36-5.93-2.48-8.29-.26l-5.88,5.52c-1.14,1.07-1.8,2.53-1.85,4.09-.05,1.57.51,3.06,1.59,4.2l7.09,7.56c1.08,1.15,2.53,1.8,4.09,1.85h.2c1.49,0,2.91-.56,4-1.58l5.89-5.53c2.36-2.21,2.48-5.93.26-8.29l-7.1-7.56ZM35.49,85.61l-2.11-2.24c-.34-.36-.52-.83-.5-1.33.01-.5.22-.96.59-1.3l5.88-5.53c.35-.33.8-.5,1.28-.5h.06c.49.01.96.22,1.3.59l1.85,1.96-8.35,8.35ZM49,85.49l-5.88,5.53c-.37.34-.83.51-1.34.5-.5-.01-.96-.22-1.3-.58l-2.26-2.4,8.36-8.36,2.51,2.68c.7.75.66,1.93-.09,2.63Z"/>
      <path class="cls-1" d="M124.79,110.77c5.16-7.25,4.42-17.37-2-23.78l-6.65-6.66-.09.09-1.85-1.85c1.36-4.62,2.08-9.51,2.08-14.57,0-1.52-.07-3.03-.2-4.52-.09-1.18-.24-2.35-.42-3.5h-4.06c.2,1.15.36,2.32.46,3.5.15,1.49.22,3,.22,4.52,0,3.89-.46,7.68-1.34,11.3l-2.84-2.84c-2.34-2.33-6.14-2.32-8.47.01l-1.85,1.84c-1.14,1.14-1.77,2.64-1.77,4.25s.63,3.11,1.77,4.23l7,7c-3.84,6.05-8.99,11.18-15.05,15-1.17.74-2.37,1.43-3.6,2.06-2.09,1.09-4.28,2.02-6.54,2.79-1.44.49-2.91.91-4.4,1.26-3.57.85-7.29,1.3-11.11,1.3s-7.57-.45-11.14-1.31l2.82-2.82c2.33-2.34,2.33-6.15,0-8.48l-1.85-1.84c-1.13-1.14-2.64-1.77-4.24-1.77s-3.11.63-4.24,1.76l-7.03,7.03h0c-6.05-3.82-11.2-8.96-15.04-15-.74-1.16-1.43-2.36-2.07-3.59-1.09-2.09-2.03-4.27-2.8-6.53-.5-1.43-.92-2.89-1.28-4.39-.87-3.61-1.33-7.38-1.33-11.26,0-.85.02-1.69.07-2.52.06-1.18.16-2.35.31-3.5h-4.03c-.14,1.15-.23,2.32-.28,3.5-.05.84-.07,1.68-.07,2.52,0,5.05.72,9.93,2.06,14.54l-.64.64-.09-.09-6.65,6.65C.01,92.3-.64,102.5,4.74,109.78l-1.07,1c-2.36,2.21-2.48,5.93-.27,8.3l5.42,5.76c2.21,2.35,5.93,2.47,8.28.26l.36-.34c3.68,2.63,8.11,3.72,12.42,3.32,1.47-.14,2.94-.45,4.35-.94.2-.39.31-.83.31-1.29,0-1.09-.61-2.04-1.5-2.52-1.18.42-2.4.68-3.64.78-3.08.27-6.24-.45-8.95-2.16l4.89-4.6c.28-.25.52-.53.74-.83.06-.09.11-.19.17-.28.14-.22.28-.44.39-.67.01-.03.03-.06.05-.09h6.66l5.69-5.69,2.95-2.95,6.27-6.27c.75-.76,2.06-.76,2.82,0l1.85,1.85c.77.78.77,2.05,0,2.82l-4.4,4.39-3.11,3.12-3.28,3.27.09.09-3.71,3.71-.11.11c-.84.84-1.75,1.55-2.73,2.14-.05.2-.07.4-.07.61,0,1.35.93,2.48,2.19,2.78,1.23-.74,2.38-1.64,3.44-2.7l.1-.1,6.55-6.56-.08-.08,1.85-1.85c4.58,1.32,9.42,2.03,14.42,2.03s9.82-.7,14.39-2.02l.74.74-.09.09,6.66,6.65c6.55,6.56,16.75,7.21,24.03,1.82l1,1.07c2.21,2.36,5.93,2.48,8.3.27l5.76-5.41c2.36-2.22,2.47-5.94.26-8.29l-.34-.35ZM9.39,88.57l3.82-3.82.09.09,2.07-2.07c.85,2.2,1.84,4.32,2.97,6.36l-4.5,4.5v7.87c0,.12-.01.23-.03.35-.06.02-.11.06-.17.08-.22.1-.43.2-.64.33-.09.05-.18.1-.27.15-.28.19-.56.39-.81.63l-4.24,3.98c-3.92-5.67-3.31-13.43,1.71-18.45ZM23.18,113.29c-.04.44-.24.84-.57,1.14l-8.25,7.75c-.34.33-.79.5-1.27.5h-.06c-.5-.01-.96-.22-1.3-.58l-5.41-5.76c-.7-.75-.66-1.94.09-2.64l.96-.9,7.3-6.85c.26-.25.59-.41.96-.47.62-.1,1.24.11,1.66.56l5.41,5.75c.38.41.55.93.48,1.5ZM31.69,111.48h-4.72c-.25-.89-.7-1.72-1.35-2.42l-5.41-5.76c-.67-.71-1.49-1.23-2.39-1.53.01-.09.02-.18.02-.27v-6.21l2.63-2.63c1.35,2.06,2.85,4.01,4.47,5.84l-.65,5.38,6.52.32c1.5,1.25,3.07,2.41,4.7,3.47l-3.82,3.82ZM98.43,103.28l5.48.66.32-6.62s0,0,0,0c1.23-1.47,2.38-3.02,3.43-4.63l3.85,3.85v4.72c-.89.25-1.72.7-2.42,1.35l-5.76,5.41c-.71.67-1.22,1.49-1.53,2.39-.09-.01-.18-.02-.27-.02h-6.21l-2.7-2.7c2.04-1.34,3.98-2.81,5.81-4.41ZM88.6,118.84l-3.82-3.83.09-.09-2.16-2.16c2.2-.84,4.33-1.83,6.38-2.95l4.57,4.57h7.87c.12,0,.23.01.35.03.02.06.06.11.08.17.1.22.21.44.33.65.05.09.1.18.15.26.19.29.4.56.63.81l3.98,4.24c-5.67,3.92-13.43,3.32-18.45-1.7ZM122.72,115.19c-.02.5-.23.96-.59,1.3l-5.76,5.41c-.75.71-1.93.67-2.64-.09l-.9-.95-6.85-7.31c-.25-.26-.41-.58-.47-.96-.09-.62.11-1.24.56-1.66l5.75-5.4c.41-.38.93-.56,1.51-.49.43.04.83.24,1.13.57l7.75,8.25c.33.35.51.79.51,1.27v.06ZM121.99,107.78l-4.6-4.9c-.26-.28-.54-.52-.84-.73-.09-.07-.19-.12-.28-.18-.22-.14-.44-.27-.67-.38-.03-.02-.06-.04-.09-.05v-6.67l-5.71-5.71-2.95-2.95-6.25-6.25c-.76-.75-.76-2.05,0-2.82l1.85-1.85c.78-.77,2.05-.77,2.83,0l4.38,4.39,3.11,3.12,3.28,3.28.09-.09,3.83,3.82c4.83,4.84,5.56,12.35,2.02,17.97Z"/>
      <path class="cls-1" d="M5.4,41.26l6.66,6.66.08-.09,1.76,1.76,3.28,3.28,2.91,2.91c2.34,2.33,6.15,2.33,8.48,0l1.84-1.85c1.14-1.13,1.77-2.64,1.77-4.24s-.63-3.11-1.76-4.24l-7.12-7.12c3.82-6.05,8.96-11.2,15-15.04,1.16-.74,2.36-1.43,3.58-2.07,2.09-1.09,4.27-2.03,6.53-2.81,1.43-.49,2.89-.92,4.39-1.27,3.62-.88,7.4-1.34,11.28-1.34s7.67.46,11.3,1.34l-2.95,2.95c-2.33,2.34-2.32,6.14.01,8.47l1.84,1.85c1.13,1.14,2.64,1.77,4.24,1.77s3.12-.63,4.24-1.76l7.12-7.12c6.04,3.84,11.17,8.99,14.99,15.05.74,1.17,1.43,2.37,2.06,3.6,1.09,2.1,2.02,4.29,2.79,6.55.49,1.43.91,2.9,1.26,4.39l3.28-3.28.63-.63.09.09,6.65-6.66c6.56-6.55,7.21-16.75,1.82-24.03l1.07-1c2.36-2.21,2.48-5.93.27-8.3l-5.41-5.76c-2.22-2.36-5.94-2.47-8.29-.26l-.35.34c-7.25-5.16-17.37-4.42-23.78,2l-6.66,6.65.09.09-1.74,1.74c-4.62-1.36-9.51-2.08-14.57-2.08s-9.93.72-14.55,2.07h0l-.55-.55.09-.09-6.65-6.65C35.86.03,25.66-.62,18.38,4.76l-1-1.06c-2.21-2.36-5.93-2.49-8.3-.27l-5.76,5.41c-2.35,2.22-2.47,5.93-.26,8.28l.34.36c-5.16,7.24-4.42,17.36,2,23.78ZM103.27,29.57l.64-5.28-6.37-.31h0c-1.52-1.28-3.1-2.46-4.77-3.55l3.74-3.74h4.72c.25.89.7,1.72,1.35,2.42l5.41,5.76c.67.71,1.49,1.23,2.39,1.53-.01.09-.02.18-.02.27v6.21l-2.59,2.59c-1.36-2.08-2.86-4.05-4.49-5.89ZM118.81,39.59l-3.83,3.82-.09-.09-2.05,2.05c-.84-2.2-1.83-4.33-2.95-6.38l4.46-4.46v-7.87c0-.12.01-.23.03-.35.06-.02.11-.06.17-.08.22-.1.44-.21.64-.33.09-.05.19-.1.27-.15.29-.19.56-.39.81-.63l4.24-3.98c3.92,5.67,3.32,13.43-1.7,18.45ZM113.83,5.98c.35-.33.79-.51,1.27-.51.02,0,.04,0,.06.01.5.01.96.22,1.3.58l5.41,5.76c.7.75.67,1.94-.09,2.64l-.95.9-7.31,6.85c-.26.25-.59.41-.96.47-.62.1-1.24-.11-1.66-.56l-5.41-5.75c-.37-.41-.55-.93-.48-1.51.04-.43.24-.83.57-1.13l8.25-7.75ZM85.96,12.05l3.82-3.83c4.84-4.83,12.35-5.55,17.96-2.02l-4.89,4.6c-.28.26-.52.54-.73.84-.07.09-.12.19-.18.28-.14.22-.27.44-.38.67-.02.03-.04.06-.05.09h-6.67l-5.6,5.6-2.95,2.95-6.36,6.36c-.75.76-2.05.76-2.82,0l-1.85-1.85c-.77-.78-.77-2.05,0-2.82l4.51-4.5,3.11-3.11,3.17-3.17-.09-.09ZM29.49,24.94s0,0,0,0l-5.2-.63-.31,6.31c-1.28,1.53-2.48,3.14-3.58,4.82l-3.72-3.72v-4.72c.89-.25,1.72-.71,2.42-1.36l5.76-5.41c.71-.66,1.23-1.49,1.53-2.38.09,0,.18.01.27.01h6.21l2.54,2.54c-2.08,1.37-4.06,2.89-5.92,4.54ZM39.59,9.41l3.82,3.82-.09.1,1.97,1.97c-2.19.85-4.31,1.84-6.35,2.97l-4.41-4.41h-7.87c-.12,0-.23-.01-.35-.02-.02-.06-.06-.11-.08-.17-.1-.23-.2-.44-.33-.65-.05-.09-.1-.18-.15-.27-.19-.28-.39-.55-.63-.8l-3.98-4.25c5.67-3.91,13.43-3.31,18.45,1.71ZM5.48,13.05c.01-.5.22-.96.58-1.3l5.76-5.4c.75-.71,1.94-.67,2.64.08l.9.96,6.85,7.3c.25.26.41.59.47.97.1.61-.11,1.24-.56,1.66l-5.75,5.4c-.41.38-.93.55-1.5.49-.44-.05-.84-.25-1.14-.57l-7.75-8.26c-.33-.34-.5-.79-.5-1.26v-.07ZM6.2,20.47l4.61,4.9c.25.27.53.51.83.73.09.06.19.11.28.17.22.14.44.28.67.39.03.01.06.04.09.05v6.66l5.6,5.6,2.96,2.96,6.35,6.35c.76.76.76,2.06,0,2.82l-1.85,1.85c-.78.78-2.05.77-2.82,0l-4.48-4.48h0s-3.12-3.12-3.12-3.12l-3.18-3.19-.09.09-3.82-3.82c-4.84-4.83-5.56-12.35-2.03-17.96Z"/>
    </g>
  </g>
</svg>